<svg xmlns="http://www.w3.org/2000/svg" fill="none" viewBox="0 0 106 111"><path fill="url(#a)" d="M40.158 34.038 0 16.918v64.886l40.158 26.419V34.038Z"/><path fill="url(#b)" d="m64.242 107.678.923-76.72L105.3 14.38v69.253l-41.058 24.045Z"/><path fill-opacity=".9" fill="#000" d="M52.06 30.017 1.337 17.137l37.293 16.716s1.378 16.6 1.378 17.566c0 1.206-.517 6.893-.689 8.444-.138 1.241.517 3.39.862 4.309l-.173 5.342c-.861 0-4.136 2.586-5.17 3.964-1.034 1.379-.69 4.136 1.034 5.86 1.379 1.379 3.447 1.149 4.309.862l-.173 2.067c-.574.345-2.206 1.069-4.136 1.207-2.413.172-4.48 3.964-3.791 6.376.69 2.413 3.274 3.792 4.48 3.792.966 0 3.16-.575 4.137-.862v2.068c-.345.173-1.241 1.31-2.068 4.481-.828 3.171.574 4.423 1.378 4.653v3.275c1.38-.173 6.894-3.792 7.756-5.17.861-1.379 3.791-2.413 3.963-2.413.173 0 .862-.345.345.517-.517.861-.345 3.447.517 4.998.862 1.551 3.102 3.791 4.998 4.48 1.896.69 8.79 1.207 10.513.345 1.723-.862.861-3.619.517-5.515-.276-1.516-2.873-3.044-4.136-3.619v-1.206c.689.115 2.343.379 3.446.517 1.379.172 4.998-.345 5.515-1.034.517-.69 1.379-2.068.69-4.826-1.241-3.998-6.951-4.883-9.651-4.825v-2.068c2.182.172 6.927.344 8.444-.345 1.896-.862 3.102-4.136 1.551-6.894-1.24-2.206-6.836-3.561-9.478-3.963v-4.998c.402-.172 1.344-.724 1.895-1.551 1.207-2.068.69-5.515.517-5.687-.138-.138-1.666-1.437-2.413-2.069V31.015l40.625-16.58-53.56 15.582Z"/><path fill="#fff" d="M57.229 47.381c.365-.914 1.632-2.538 3.977-2.538 1.867 0 3.174 1.074 3.604 1.628l-.315.246c-.374-.48-1.572-1.474-3.29-1.474-2.135 0-3.281 1.477-3.605 2.287-.029.072-.053.229-.063.479a11.5 11.5 0 0 0 .01.895c.03.698.099 1.56.174 2.433l.053.608c.059.665.115 1.313.155 1.87.026.364.044.691.05.961.007.266.002.49-.023.64-.128.772-.752 3.053-1.119 4.351 3.357-.706 6.185.207 7.223.784l-.194.35c-.995-.554-3.874-1.484-7.266-.67-1.31.327-3.907 1.946-3.64 5.823.108 1.55.534 2.628 1.087 3.378a4.205 4.205 0 0 0 1.889 1.44c.756.294 1.458.339 1.823.339.238 0 .666.026 1.189.058l.114.007c.58.036 1.272.077 1.978.101.771.026 1.554.031 2.22-.014.333-.023.633-.058.885-.109.256-.05.45-.115.58-.19l.2.348c-.185.105-.429.18-.701.234a7.485 7.485 0 0 1-.937.116c-.625.042-1.344.042-2.055.021-.072.5-.613 1.135-2.061 1.376l-.066-.395c1.297-.216 1.647-.714 1.718-.995a78.06 78.06 0 0 1-1.785-.094l-.103-.006c-.535-.033-.95-.058-1.176-.058-.38 0-1.094-.045-1.876-.332-.6.358-1.478.923-2.265 1.512-.413.308-.797.621-1.102.913a4 4 0 0 0-.462.51 6.295 6.295 0 0 1-.141.239 22.9 22.9 0 0 0-.53 2.815c-.11.901-.157 1.812-.07 2.545.06.201.096.39.097.551.029.363.113.94.272 1.49.164.567.395 1.058.687 1.292l.009.007.008.008c.592.592 1.665 1.495 2.947 2.266 1.285.773 2.76 1.4 4.159 1.467 2.897.138 5.002.287 5.694.345l-.033.398c-.687-.057-2.787-.206-5.68-.344-1.496-.071-3.037-.736-4.346-1.523a17.219 17.219 0 0 1-2.668-1.986c.004 1.006-.142 2.39-.6 3.715-.15.516-.353 1.378-.474 2.288-.118.897-.153 1.814.007 2.487.069.08.128.161.17.245.076.153.18.406.289.734.329.547.799 1.414 1.155 2.27.18.434.333.869.423 1.261.09.386.125.758.041 1.05-.182.637-.46 1.014-.725 1.256a2.438 2.438 0 0 1-.408.297l-.069.043a.382.382 0 0 0-.055.041l-.497.497.161-.684a8.718 8.718 0 0 0 .217-1.621 44.202 44.202 0 0 1-3.542 3.802c-.782.738-1.59 1.428-2.362 1.969-.768.539-1.516.942-2.175 1.089-2.526.561-4.136-.108-4.656-.562l.264-.301c.4.35 1.869 1.014 4.306.472.581-.129 1.278-.496 2.032-1.025.75-.526 1.543-1.202 2.316-1.932a43.85 43.85 0 0 0 3.825-4.155 12.678 12.678 0 0 0-.623-3.62 5.793 5.793 0 0 0-.275-.702.903.903 0 0 0-.142-.193c-.221-.243-.613-.528-1.036-.795a14.272 14.272 0 0 0-1.054-.6c-.81.415-1.884.537-2.877.6-.256.015-.51.027-.755.039h-.01c-.248.012-.485.024-.71.038l-.205.015.181.286a60.78 60.78 0 0 0-2.395 1.605c-.407.29-.775.564-1.049.79a4.326 4.326 0 0 0-.326.294c-.039.04-.068.073-.088.1-.018.024-.023.036-.023.036v-.001l-.38-.127a.54.54 0 0 1 .084-.149c.033-.044.075-.09.12-.138.094-.096.216-.205.358-.323.285-.235.663-.516 1.072-.808a60.732 60.732 0 0 1 2.313-1.553 4.388 4.388 0 0 0-.772.125c-.955.273-2.337.798-2.91 1.027l-.15-.371c.576-.23 1.974-.762 2.95-1.04.324-.093.741-.137 1.194-.167.229-.015.47-.026.718-.038h.008c.245-.012.497-.024.75-.04 1.037-.065 2.071-.194 2.803-.6l.004-.002c1.319-.691 2.128-1.965 2.602-3.335.505-1.46.618-2.999.57-3.975-.358-.33-.595-.892-.75-1.432a8.37 8.37 0 0 1-.287-1.562c-.039-.159-.07-.33-.092-.508a4.476 4.476 0 0 0-.086-.256 9.884 9.884 0 0 0-.449-1.002 21.645 21.645 0 0 0-.954-1.677c-1.197.82-2.792 1.562-4.884 2.052-.377.141-.825.32-1.291.504-.389.154-.79.313-1.173.46-.42.162-.817.309-1.143.416a6.37 6.37 0 0 1-.434.128c-.121.03-.235.051-.326.051v-.4c.04 0 .114-.01.23-.04.11-.027.248-.068.406-.12.315-.103.704-.247 1.124-.408.373-.144.772-.302 1.16-.456.478-.189.94-.372 1.319-.514l.012-.005.013-.003c2.154-.502 3.757-1.276 4.926-2.111 1.04-.744 1.74-1.537 2.18-2.237.042-.09.098-.183.166-.279.152-.275.263-.53.338-.756.233-.697.007-1.58-.445-2.59a23.88 23.88 0 0 0-.777-1.541l-.17-.314c-.227-.42-.456-.845-.665-1.262-.395-.791-1.118-1.555-1.876-2.193-.7-.59-1.415-1.06-1.896-1.334-1.472 1.023-2.914 1.235-4.034 1.149a5.561 5.561 0 0 1-1.426-.296 3.634 3.634 0 0 1-.456-.195 1.177 1.177 0 0 1-.27-.18l.283-.284a.87.87 0 0 0 .173.11c.1.052.237.113.405.172.334.12.788.233 1.321.274 1.066.082 2.453-.124 3.874-1.148a8.643 8.643 0 0 0 1.684-1.632c.844-1.054 1.258-2.025 1.397-2.9a4.55 4.55 0 0 0-.264-2.375c-.455-1.19-1.288-2.113-1.86-2.747-.113-.125-.215-.238-.302-.34-.175-.203-.543-.428-1.061-.655a15.822 15.822 0 0 0-1.804-.636 38.475 38.475 0 0 0-3.74-.882l.071-.394c.953.174 2.434.494 3.782.893.675.2 1.32.42 1.851.653.523.229.966.483 1.205.761.079.093.175.199.282.317.57.63 1.465 1.62 1.95 2.887.29.76.437 1.625.285 2.58-.152.956-.6 1.989-1.48 3.088a9.282 9.282 0 0 1-1.516 1.521c.492.292 1.155.74 1.804 1.287.774.652 1.544 1.457 1.976 2.32.205.41.43.828.658 1.248l.171.317c.283.525.56 1.053.79 1.567.422.944.704 1.886.51 2.701.27-.238.576-.481.894-.72a28.32 28.32 0 0 1 2.05-1.384 4.57 4.57 0 0 1-1.703-1.417c-.606-.822-1.052-1.975-1.163-3.587-.277-4.014 2.355-5.787 3.83-6.21.356-1.252 1.038-3.732 1.17-4.522.018-.108.024-.299.018-.564a21.197 21.197 0 0 0-.05-.943c-.04-.553-.096-1.196-.154-1.86l-.053-.611a59.522 59.522 0 0 1-.176-2.451c-.015-.354-.02-.67-.01-.928.01-.248.034-.468.092-.612Zm-5.92 27.9a9.11 9.11 0 0 1-1.552 1.447 22.027 22.027 0 0 1 1.114 1.989c.01-.49.054-1 .115-1.498.084-.69.204-1.365.323-1.937Zm-1.923 15.595c.258.139.559.31.853.496.234.147.47.306.677.468-.068-.65-.02-1.4.073-2.106.026-.197.056-.392.088-.582-.429.678-.982 1.28-1.69 1.724Zm2.884 3.993c.129.665.223 1.422.233 2.218a9.854 9.854 0 0 1-.137 1.798c.036-.027.073-.058.11-.091.208-.19.447-.502.61-1.07.054-.191.039-.481-.046-.85a7.802 7.802 0 0 0-.404-1.197 15.293 15.293 0 0 0-.366-.808Zm7.853-33.432c-2.679-.67-4.912.505-5.68 1.164l-.26-.304c.84-.72 3.202-1.957 6.037-1.248 2.75.687 4.456.855 4.95.855v.4c-.54 0-2.282-.176-5.047-.867Zm-16.966 5.757a57.805 57.805 0 0 1 3.662-1.825l.165.364c-.887.4-2.295 1.08-3.636 1.812-1.348.737-2.601 1.514-3.198 2.111l-.283-.282c.643-.644 1.947-1.446 3.29-2.18Zm7.06 4.61a4.375 4.375 0 0 0-.554-1.492l.337-.215c.215.337.483.93.61 1.636.127.707.114 1.54-.252 2.346l-.364-.166c.323-.712.34-1.458.222-2.11Zm9.158 2.394a13.874 13.874 0 0 0-2.533-1.044l.11-.385c.616.176 1.612.543 2.611 1.076.99.527 2.004 1.228 2.651 2.081.1.082.267.15.497.196.236.047.517.067.813.067.59 0 1.216-.078 1.61-.15l.072.394c-.411.075-1.061.156-1.682.156-.31 0-.62-.02-.891-.074-.267-.054-.521-.144-.699-.302l-.014-.013-.013-.016c-.594-.793-1.555-1.466-2.532-1.986Zm-15.212 5.66a50.504 50.504 0 0 1 4.054-1.571l.127.38c-.943.314-2.48.88-4.02 1.557-1.545.678-3.076 1.46-4.02 2.201l-.247-.314c.986-.775 2.557-1.574 4.106-2.254Zm12.256.56a7.545 7.545 0 0 1-.066-1.613l.399.033c-.028.33-.028.9.063 1.523.092.623.273 1.282.597 1.801l-.34.212c-.365-.584-.557-1.304-.653-1.956Zm-5.913 4.346a5.867 5.867 0 0 0-.178-1.41l.386-.105c.09.333.188.892.192 1.512.004.618-.083 1.314-.379 1.905l-.358-.179c.257-.512.341-1.137.337-1.723Zm8.623 3.036a24.825 24.825 0 0 0-4.289-.162l-.022-.4c1.044-.058 2.72-.049 4.363.166.822.107 1.64.266 2.368.496.724.229 1.373.531 1.85.932.232.173.502.237.754.242.255.005.478-.05.598-.098l.148.371a2.021 2.021 0 0 1-.755.127 1.69 1.69 0 0 1-.99-.325l-.01-.007c-.419-.355-1.014-.639-1.715-.86-.7-.221-1.493-.376-2.3-.482Zm-4.139 6.783c-.433-1.011-.419-2.327-.36-2.858l.398.044c-.056.502-.064 1.737.33 2.656l-.368.158Zm1.607 3.35c-.77-.642-1.831-.699-2.26-.645l-.05-.397c.49-.062 1.68-.004 2.566.734.104.087.288.185.548.29.256.102.572.204.929.304.714.2 1.58.387 2.439.548.858.16 1.706.295 2.382.389.682.094 1.174.146 1.33.146v.4c-.19 0-.711-.056-1.385-.15a53.101 53.101 0 0 1-2.401-.392 30.277 30.277 0 0 1-2.473-.556 9.769 9.769 0 0 1-.97-.318c-.27-.108-.501-.225-.655-.354Zm-.894 1.776c-1.062.111-2.094.333-2.717.503l-.105-.386c.64-.175 1.694-.401 2.78-.514 1.079-.113 2.224-.118 3.028.174.85.31 1.737.368 2.625.427l.207.014c.944.064 1.892.151 2.712.606l-.195.35c-.73-.406-1.592-.492-2.544-.557l-.216-.014c-.878-.058-1.82-.121-2.726-.45-.712-.259-1.779-.264-2.849-.153Z" clip-rule="evenodd" fill-rule="evenodd"/><path fill="#98FCB6" d="M40.664 41.867c1.351-2.162 5.517-3.736 10.447-3.736 4.93 0 9.095 1.574 10.446 3.736-1.35 1.967-5.517 3.4-10.446 3.4-4.93 0-9.096-1.433-10.447-3.4Z" clip-rule="evenodd" fill-rule="evenodd"/><path fill="#1A1A1A" d="M54.309 45.199c1.103-.879 1.803-2.182 1.803-3.637 0-1.22-.491-2.333-1.3-3.178a14.161 14.161 0 0 0-4.15-.602c-1.181 0-2.311.136-3.351.384-.94.868-1.522 2.069-1.522 3.396 0 1.55.794 2.929 2.026 3.804.898.162 1.854.25 2.847.25 1.294 0 2.526-.149 3.647-.417Z" clip-rule="evenodd" fill-rule="evenodd"/><path fill="url(#c)" d="M52.242 30.091 1.18 17.005 52.242 0l53.249 14.181-53.249 15.91Z"/><defs><linearGradient gradientUnits="userSpaceOnUse" y2="60.576" x2="-2.945" y1="57.027" x1="33.532" id="a"><stop stop-color="#F1F1F1" offset=".013"/><stop stop-opacity="0" stop-color="#fff" offset=".934"/></linearGradient><linearGradient gradientUnits="userSpaceOnUse" y2="63.688" x2="110.807" y1="63.275" x1="64.242" id="b"><stop stop-color="#E6E6E6" offset=".029"/><stop stop-opacity="0" stop-color="#fff" offset="1"/></linearGradient><linearGradient gradientUnits="userSpaceOnUse" y2="3.833" x2="53.334" y1="30.091" x1="55.064" id="c"><stop stop-color="#E2E2E2" offset=".022"/><stop stop-opacity="0" stop-color="#fff" offset="1"/></linearGradient></defs></svg>