<svg xmlns="http://www.w3.org/2000/svg" fill="none" viewBox="0 0 38 16"><path fill="#fff" d="M12.04 2.44h1.74l.08-.5-.76-.76h4.06l-.18 1.26h2.44l-.26 1.9h-2.44l-.24 1.6h1.98l-.26 1.9h-1.98L16 9.44h1.98l-.28 1.9h-1.98l-.22 1.6h2.46l-.26 1.88h-7.4l-.04.32H7.14l1.54-11-.64.2.32-2.28L12.28.78l-.24 1.66Zm-8.32.92L4 1.4 3.5.82h3.94l-.36 2.54h.66L7.5 5.14h-.68l-.3 2.16.52-.16-.3 2.08-.5.16-.62 4.46a1.587 1.587 0 0 1-.54.96c-.293.24-.626.36-1 .36H.98l1.34-1.8.4-2.88-1.14.36.3-2.1L3 8.4l.46-3.26H2.4l.24-1.78h1.08Zm6.84 9.58h1.76l.22-1.6h-1.76l-.22 1.6Zm.5-3.5h1.74l.22-1.6h-1.74l-.22 1.6Zm.48-3.5h1.76l.22-1.6h-1.74l-.24 1.6Z" data-follow-fill="#fff"/><path fill="url(#a)" d="M12.04 2.44h1.74l.08-.5-.76-.76h4.06l-.18 1.26h2.44l-.26 1.9h-2.44l-.24 1.6h1.98l-.26 1.9h-1.98L16 9.44h1.98l-.28 1.9h-1.98l-.22 1.6h2.46l-.26 1.88h-7.4l-.04.32H7.14l1.54-11-.64.2.32-2.28L12.28.78l-.24 1.66Zm-8.32.92L4 1.4 3.5.82h3.94l-.36 2.54h.66L7.5 5.14h-.68l-.3 2.16.52-.16-.3 2.08-.5.16-.62 4.46a1.587 1.587 0 0 1-.54.96c-.293.24-.626.36-1 .36H.98l1.34-1.8.4-2.88-1.14.36.3-2.1L3 8.4l.46-3.26H2.4l.24-1.78h1.08Zm6.84 9.58h1.76l.22-1.6h-1.76l-.22 1.6Zm.5-3.5h1.74l.22-1.6h-1.74l-.22 1.6Zm.48-3.5h1.76l.22-1.6h-1.74l-.24 1.6Z"/><path fill="#fff" d="M28.079 4.74h8.66l-.28 1.9h-9.8l-1.36 1.82-.94 6.68h-3.68l.68-4.88h-1.52l2.72-3.62h-1.66l.28-1.9h2.82l.36-.48h4.08l-.36.48Zm1.2 5.58.04-.24 2.64-1.24h-4.94l.24-1.68h8.78l-.3 2.06-2.56 1.1h3.34l-.24 1.8h-3.62l-.24 1.72a1.453 1.453 0 0 1-.54.94c-.293.24-.633.36-1.02.36h-3.76l1.76-1.8.16-1.22h-3.38l.24-1.8h3.4Zm-5.28-6.96h-2.84l.24-1.72h2.84l.02-.1-.64-.76h4.18l-.12.86h3.42l.02-.1-.64-.76h4.18l-.12.86h2.82l-.24 1.72h-2.84l-.06.46h-3.42l.06-.46h-3.44l-.06.46h-3.42l.06-.46Z" data-follow-fill="#fff"/><path fill="url(#b)" d="M28.079 4.74h8.66l-.28 1.9h-9.8l-1.36 1.82-.94 6.68h-3.68l.68-4.88h-1.52l2.72-3.62h-1.66l.28-1.9h2.82l.36-.48h4.08l-.36.48Zm1.2 5.58.04-.24 2.64-1.24h-4.94l.24-1.68h8.78l-.3 2.06-2.56 1.1h3.34l-.24 1.8h-3.62l-.24 1.72a1.453 1.453 0 0 1-.54.94c-.293.24-.633.36-1.02.36h-3.76l1.76-1.8.16-1.22h-3.38l.24-1.8h3.4Zm-5.28-6.96h-2.84l.24-1.72h2.84l.02-.1-.64-.76h4.18l-.12.86h3.42l.02-.1-.64-.76h4.18l-.12.86h2.82l-.24 1.72h-2.84l-.06.46h-3.42l.06-.46h-3.44l-.06.46h-3.42l.06-.46Z"/><defs><linearGradient gradientUnits="userSpaceOnUse" y2="8.842" x2="35.778" y1="8" x1="-1.137" id="a"><stop stop-color="#F9FD80"/><stop stop-color="#73E5BB" offset="1"/></linearGradient><linearGradient gradientUnits="userSpaceOnUse" y2="8.842" x2="35.778" y1="8" x1="-1.137" id="b"><stop stop-color="#F9FD80"/><stop stop-color="#73E5BB" offset="1"/></linearGradient></defs></svg>