<svg xmlns="http://www.w3.org/2000/svg" fill="none" viewBox="0 0 37 16"><path fill="#fff" d="m17.4 1.16-.74 5.32H2.98l.64-4.58-.64-.74H17.4Zm.32 5.88-.22 1.52H9.52l-.92 6.62H5.56l.1-.68-5 .34.28-1.9.76-.04.62-4.34h-.78l.22-1.52h15.96ZM10 9.14h7.04l-.28 2.08-2.16 1.8 1.98 2.16h-3.24l-.58-.62-.74.62H8.78l2.58-2.16-1.64-1.8.08-.56.2-1.52Zm3.08-4.18.08-.58H7.08L7 4.96h6.08ZM7.24 3.22h6.08l.08-.56H7.32l-.08.56Zm-2.46 9.46 1.14-.08.08-.62H4.88l-.1.7Zm7.68-2.02.74.82.98-.82h-1.72ZM5.28 9.14H6.4l.08-.58H5.36l-.08.58Zm-.24 1.7h1.12l.08-.56H5.12l-.08.56Z" data-follow-fill="#fff"/><path fill="url(#a)" d="m17.4 1.16-.74 5.32H2.98l.64-4.58-.64-.74H17.4Zm.32 5.88-.22 1.52H9.52l-.92 6.62H5.56l.1-.68-5 .34.28-1.9.76-.04.62-4.34h-.78l.22-1.52h15.96ZM10 9.14h7.04l-.28 2.08-2.16 1.8 1.98 2.16h-3.24l-.58-.62-.74.62H8.78l2.58-2.16-1.64-1.8.08-.56.2-1.52Zm3.08-4.18.08-.58H7.08L7 4.96h6.08ZM7.24 3.22h6.08l.08-.56H7.32l-.08.56Zm-2.46 9.46 1.14-.08.08-.62H4.88l-.1.7Zm7.68-2.02.74.82.98-.82h-1.72ZM5.28 9.14H6.4l.08-.58H5.36l-.08.58Zm-.24 1.7h1.12l.08-.56H5.12l-.08.56Z"/><path fill="#fff" d="m29.519 1.92 7.18-1.14-.28 1.9-4.26.68-.28 1.98h4.56l-.28 1.9h-.76l-1.12 7.94h-2.86l1.12-7.94h-.94l-1.12 7.94h-2.84l1.88-13.26Zm-7.3 5.9.08-.58h-2.86l.28-1.9h1.34l-.24-1.14h2.66l.24 1.14h.74l.56-1.14h2.66l-.56 1.14h1.34l-.28 1.9h-2.84l-.08.58h2.46l-.26 1.9h-2.46l-.58 4.14a1.551 1.551 0 0 1-.56.96c-.294.24-.634.36-1.02.36h-2.62l1.12-1.14.62-4.32h-2.48l.26-1.9h2.48Zm.84-5.9.08-.56-.5-.58h3.62l-.16 1.14h2.46l-.28 1.9h-7.98l.28-1.9h2.48Zm2.22 8.36h1.9l.04 3.8h-1.9l-.04-3.8Zm-4.9 3.8h-1.9l1.12-3.8h1.9l-1.12 3.8Z" data-follow-fill="#fff"/><path fill="url(#b)" d="m29.519 1.92 7.18-1.14-.28 1.9-4.26.68-.28 1.98h4.56l-.28 1.9h-.76l-1.12 7.94h-2.86l1.12-7.94h-.94l-1.12 7.94h-2.84l1.88-13.26Zm-7.3 5.9.08-.58h-2.86l.28-1.9h1.34l-.24-1.14h2.66l.24 1.14h.74l.56-1.14h2.66l-.56 1.14h1.34l-.28 1.9h-2.84l-.08.58h2.46l-.26 1.9h-2.46l-.58 4.14a1.551 1.551 0 0 1-.56.96c-.294.24-.634.36-1.02.36h-2.62l1.12-1.14.62-4.32h-2.48l.26-1.9h2.48Zm.84-5.9.08-.56-.5-.58h3.62l-.16 1.14h2.46l-.28 1.9h-7.98l.28-1.9h2.48Zm2.22 8.36h1.9l.04 3.8h-1.9l-.04-3.8Zm-4.9 3.8h-1.9l1.12-3.8h1.9l-1.12 3.8Z"/><defs><linearGradient gradientUnits="userSpaceOnUse" y2="8.842" x2="34.778" y1="8" x1="-2.137" id="a"><stop stop-color="#F9FD80"/><stop stop-color="#73E5BB" offset="1"/></linearGradient><linearGradient gradientUnits="userSpaceOnUse" y2="8.842" x2="34.778" y1="8" x1="-2.137" id="b"><stop stop-color="#F9FD80"/><stop stop-color="#73E5BB" offset="1"/></linearGradient></defs></svg>