<svg xmlns="http://www.w3.org/2000/svg" fill="none" viewBox="0 0 28 28"><path fill-opacity=".9" fill="#000" d="M11.668 17.123v-.072c0-2.926 2.352-5.388 5.545-6.105-.425-2.686-3.26-4.878-6.828-4.878C6.51 6.068 3.5 8.65 3.5 11.644c0 1.13.42 2.217 1.214 3.148.037.044.096.11.177.193.686.704 1.1 1.63 1.169 2.61a4.214 4.214 0 0 1 2.757-.515c.193.03.352.054.472.07.79.103 1.59.093 2.378-.028v.001Zm.533 2.276a10.745 10.745 0 0 1-3.212.064 22.5 22.5 0 0 1-.53-.078 1.88 1.88 0 0 0-1.26.247l-2.22 1.34a.94.94 0 0 1-1.204-.184.922.922 0 0 1-.219-.672l.175-2.078a1.826 1.826 0 0 0-.512-1.427 6.47 6.47 0 0 1-.281-.306c-1.113-1.306-1.77-2.919-1.77-4.662 0-4.368 4.126-7.909 9.217-7.909 4.736 0 8.636 3.065 9.158 7.01 3.934.178 7.058 2.934 7.058 6.307 0 1.392-.532 2.678-1.433 3.721-.06.07-.136.152-.228.245a1.445 1.445 0 0 0-.415 1.139l.14 1.66a.742.742 0 0 1-.688.794.77.77 0 0 1-.463-.11l-1.8-1.07a1.542 1.542 0 0 0-1.02-.197c-.171.027-.314.046-.429.062a8.998 8.998 0 0 1-1.13.072c-3.143 0-5.831-1.643-6.934-3.968Zm8.14 1.528a3.88 3.88 0 0 1 1.955.204 3.792 3.792 0 0 1 .982-1.753c.058-.058.101-.105.123-.13.57-.66.867-1.416.867-2.197 0-2.105-2.22-3.983-5.133-3.983-2.914 0-5.134 1.878-5.134 3.983 0 2.104 2.22 3.983 5.134 3.983.28 0 .56-.019.833-.054.093-.012.219-.03.373-.054v.002Z" data-follow-fill="#000"/></svg>