<svg xmlns="http://www.w3.org/2000/svg" fill="none" viewBox="0 0 36 36"><rect fill-opacity=".04" fill="#000" rx="4" height="36" width="36" data-follow-fill="#000"/><path fill-opacity=".7" fill="#000" d="M25.362 19.68v5.649h.818V27H9.818v-1.671h.818V19.68a3.73 3.73 0 0 1-1.202-1.354A3.822 3.822 0 0 1 9 16.554c0-.692.183-1.358.518-1.925l2.218-3.925a.826.826 0 0 1 .3-.306.804.804 0 0 1 .409-.112h11.109c.144 0 .285.038.409.112a.826.826 0 0 1 .3.306l2.21 3.912c.488.829.645 1.817.438 2.76a3.76 3.76 0 0 1-1.549 2.305Zm-1.636.61a3.607 3.607 0 0 1-1.664-.2 3.673 3.673 0 0 1-1.404-.936 3.678 3.678 0 0 1-1.213.859 3.612 3.612 0 0 1-2.892 0c-.456-.199-.87-.49-1.213-.857a3.673 3.673 0 0 1-1.404.934 3.605 3.605 0 0 1-1.664.202v5.037h11.454V20.29Zm-10.808-8.333-1.99 3.521a2.131 2.131 0 0 0-.017 1.525c.183.493.541.896 1.003 1.13.462.235.993.282 1.488.133a2.052 2.052 0 0 0 1.18-.936.812.812 0 0 1 1.517 0c.152.388.414.72.753.955a2.015 2.015 0 0 0 2.294 0c.34-.234.601-.567.753-.955a.812.812 0 0 1 1.518 0c.106.267.265.509.467.71.202.2.443.357.707.459a2.005 2.005 0 0 0 1.637-.087c.252-.13.475-.31.656-.532a2.135 2.135 0 0 0 .18-2.416l-1.985-3.507H12.918Z" data-follow-fill="#000"/></svg>