<svg width="20" height="20" viewBox="0 0 20 20" fill="none" xmlns="http://www.w3.org/2000/svg">
<path fill-rule="evenodd" clip-rule="evenodd" d="M1.04199 2.5C1.04199 2.15482 1.32181 1.875 1.66699 1.875H18.3337C18.6788 1.875 18.9587 2.15482 18.9587 2.5V15C18.9587 15.3452 18.6788 15.625 18.3337 15.625H9.7312L5.6965 17.6424C5.50276 17.7392 5.27267 17.7289 5.08841 17.615C4.90415 17.5011 4.79199 17.2999 4.79199 17.0833V15.625H1.66699C1.32181 15.625 1.04199 15.3452 1.04199 15V2.5ZM2.29199 3.125V14.375H5.41699C5.76217 14.375 6.04199 14.6548 6.04199 15V16.0721L9.30415 14.441C9.39093 14.3976 9.48663 14.375 9.58366 14.375H17.7087V3.125H2.29199Z" fill="black" fill-opacity="0.45"/>
</svg>
