<svg width="44" height="19" viewBox="0 0 44 19" fill="none" xmlns="http://www.w3.org/2000/svg">
<path d="M18.5837 9.14404L17.5997 16.176C17.5357 16.64 17.3197 17.032 16.9517 17.352C16.5997 17.656 16.1997 17.808 15.7517 17.808H11.9117L13.5197 16.104L13.5917 15.528H4.47166L4.15966 17.784H0.0556641L1.25566 9.14404H18.5837ZM8.28766 4.58404L8.33566 4.12804H1.51966L1.75966 2.30404H8.59966L8.67167 1.84804L7.87966 0.936035H13.3517L13.1597 2.30404H19.9997L19.7597 4.12804H12.8957L12.8237 4.58404H18.7757L18.5117 6.40804H12.5837L12.5117 6.86404H19.8317L19.5677 8.68804H0.415664L0.679664 6.86404H7.95166L8.02366 6.40804H1.63966L1.90366 4.58404H8.28766ZM5.04766 11.424H14.1677L14.2397 10.968H5.11966L5.04766 11.424ZM4.73566 13.704H13.8557L13.9037 13.248H4.78366L4.73566 13.704Z" fill="url(#paint0_linear_410_2149)" fill-opacity="0.9"/>
<path d="M35.9298 18.192H29.4738L29.8818 15.168H28.6578L25.5858 18.168H21.6978L24.7698 15.168H22.7538L23.2818 11.472H27.9378L28.0098 10.824H22.9698L23.2098 9.07204H28.2498L28.2738 9.02404L27.7218 8.11204H31.8738L31.7298 9.07204H36.7698L36.5298 10.824H31.4898L31.3938 11.472H35.9778L35.4498 15.168H33.4578L33.2898 16.488H35.2578L36.2898 15.576L35.9298 18.192ZM41.6178 5.88004L40.2018 15.936H40.8498L41.8818 15.024L41.4498 18.144H36.4338L37.8978 7.68004H23.4258L23.6898 5.88004H41.6178ZM29.5698 0.984035L29.3298 1.44003H43.2738L43.0338 3.16804H28.4178L28.1778 3.62403H42.3858L42.1458 5.28004H27.3138L27.1458 5.61604H23.2578L25.3938 1.65603L24.7938 0.984035H29.5698ZM32.3298 13.704L32.4738 12.72H26.5698L26.4258 13.704H32.3298Z" fill="url(#paint1_linear_410_2149)" fill-opacity="0.9"/>
<defs>
<linearGradient id="paint0_linear_410_2149" x1="1.68571" y1="7.75" x2="42.6712" y2="8.552" gradientUnits="userSpaceOnUse">
<stop stop-color="#EEFB6E"/>
<stop offset="0.503733" stop-color="#9BFAB2"/>
<stop offset="1" stop-color="#79FACE"/>
</linearGradient>
<linearGradient id="paint1_linear_410_2149" x1="1.68571" y1="7.75" x2="42.6712" y2="8.552" gradientUnits="userSpaceOnUse">
<stop stop-color="#EEFB6E"/>
<stop offset="0.503733" stop-color="#9BFAB2"/>
<stop offset="1" stop-color="#79FACE"/>
</linearGradient>
</defs>
</svg>
