<svg width="44" height="44" viewBox="0 0 44 44" fill="none" xmlns="http://www.w3.org/2000/svg">
<rect width="44" height="44" rx="22" fill="url(#paint0_linear_411_2036)"/>
<rect width="44" height="44" rx="22" fill="url(#paint1_linear_411_2036)"/>
<path d="M21 21V16C21 15.4477 21.4477 15 22 15V15C22.5523 15 23 15.4477 23 16V21H28C28.5523 21 29 21.4477 29 22V22C29 22.5523 28.5523 23 28 23H23V28C23 28.5523 22.5523 29 22 29V29C21.4477 29 21 28.5523 21 28V23H16C15.4477 23 15 22.5523 15 22V22C15 21.4477 15.4477 21 16 21H21Z" fill="black" fill-opacity="0.9"/>
<defs>
<linearGradient id="paint0_linear_411_2036" x1="35.5" y1="39.5" x2="3" y2="7.5" gradientUnits="userSpaceOnUse">
<stop/>
<stop offset="1" stop-opacity="0"/>
</linearGradient>
<linearGradient id="paint1_linear_411_2036" x1="-2.54105" y1="22" x2="41.3711" y2="22.6499" gradientUnits="userSpaceOnUse">
<stop stop-color="#F9FD80"/>
<stop offset="1" stop-color="#73E5BB"/>
</linearGradient>
</defs>
</svg>
