<svg width="14" height="14" viewBox="0 0 14 14" fill="none" xmlns="http://www.w3.org/2000/svg">
<path fill-rule="evenodd" clip-rule="evenodd" d="M6.94916 2.29507C4.37869 2.29507 2.29507 4.37858 2.29507 6.94893C2.29507 9.51928 4.37869 11.6028 6.94916 11.6028C9.51963 11.6028 11.6032 9.51928 11.6032 6.94893C11.6032 4.37858 9.51963 2.29507 6.94916 2.29507ZM0 6.94893C0 3.11093 3.11128 0 6.94916 0C10.787 0 13.8983 3.11093 13.8983 6.94893C13.8983 10.7869 10.787 13.8979 6.94916 13.8979C3.11128 13.8979 0 10.7869 0 6.94893Z" fill="white"/>
<path d="M12.5891 10.9495C12.136 10.4963 11.4014 10.4963 10.9483 10.9495C10.4951 11.4026 10.4951 12.1367 10.9483 12.5898L12.5891 10.9495ZM12.0192 13.6602C12.4724 14.1133 13.2071 14.1133 13.6602 13.6602C14.1134 13.2071 14.1134 12.473 13.6602 12.0199L12.0192 13.6602ZM10.9483 12.5898L12.0192 13.6602L13.6602 12.0199L12.5891 10.9495L10.9483 12.5898Z" fill="white"/>
</svg>
