<svg width="20" height="20" viewBox="0 0 20 20" fill="none" xmlns="http://www.w3.org/2000/svg">
<path fill-rule="evenodd" clip-rule="evenodd" d="M8.67887 2.24616C8.77918 2.02046 9.00301 1.875 9.25 1.875C10.8378 1.875 12.125 3.16218 12.125 4.75V7.125H15.9968C16.6188 7.11907 17.2123 7.38603 17.6205 7.85553C18.0296 8.326 18.2115 8.95235 18.1179 9.56879L18.1178 9.56973L17.0829 16.3187C17.0829 16.3189 17.083 16.3186 17.0829 16.3187C16.924 17.3649 16.0196 18.1351 14.9617 18.125H6.25C5.90482 18.125 5.625 17.8452 5.625 17.5V9.25C5.625 9.16255 5.64335 9.07608 5.67887 8.99616L8.67887 2.24616ZM9.6357 3.17105L6.875 9.38263V16.875H14.9721C15.4084 16.8799 15.7816 16.5627 15.8471 16.1313L16.8821 9.38121C16.8821 9.38102 16.882 9.38141 16.8821 9.38121C16.9204 9.12759 16.8456 8.86935 16.6772 8.67573C16.5088 8.48203 16.2638 8.37204 16.0071 8.37496L16 8.37504L11.5 8.375C11.1548 8.375 10.875 8.09518 10.875 7.75V4.75C10.875 3.98544 10.347 3.3442 9.6357 3.17105Z" fill="#8C8C8C"/>
<path fill-rule="evenodd" clip-rule="evenodd" d="M4.25257 8.54176H6.25C6.59518 8.54176 6.875 8.82158 6.875 9.16676V17.4998C6.875 17.845 6.59518 18.1248 6.25 18.1248H4.25261C3.05959 18.143 2.04066 17.2666 1.88064 16.0836C1.87688 16.0559 1.875 16.0279 1.875 15.9998V10.7498C1.875 10.7218 1.87688 10.6938 1.88064 10.6661C2.03502 9.52472 3.01934 8.52323 4.25257 8.54176ZM3.125 10.7963V15.9531C3.21612 16.4909 3.68732 16.8847 4.23645 16.8749L4.2475 16.8747L5.625 16.8748V9.79176H4.23644C3.72614 9.78273 3.22184 10.2164 3.125 10.7963Z" fill="#8C8C8C"/>
</svg>
