<svg width="30" height="28" viewBox="0 0 30 28" fill="none" xmlns="http://www.w3.org/2000/svg">
<path d="M9.48778 0.460938L9.08778 1.11694H14.6718L14.4638 2.55694H8.22378L7.85578 3.14894H14.1598L13.7918 5.82094H14.4478L14.2398 7.29294H13.5838L13.3918 8.63694H13.8078L13.6158 10.0129H13.1998L13.0718 10.8769C13.0291 11.1863 12.9171 11.4476 12.7358 11.6609C12.5544 11.8636 12.3571 11.9649 12.1438 11.9649H7.13578L8.62378 10.5089H10.7678L10.8478 10.0129H5.13578L5.51978 7.29294H4.55978L4.76778 5.82094H5.72778L5.96778 4.09294H4.68778L6.62378 1.02094L6.07978 0.460938H9.48778ZM0.399781 11.9649L1.83978 7.43694H4.22378L2.79978 11.9649H0.399781ZM1.87178 6.82894L1.72778 4.09294H4.11178L4.27178 6.82894H1.87178ZM2.33578 3.50094L2.19178 0.764937H4.57578L4.73578 3.50094H2.33578ZM8.07978 5.90094H8.91178L8.81578 4.87694H10.7038L10.7998 5.90094H11.4238L11.6158 4.49294H8.27178L8.07978 5.90094ZM11.2318 7.21294H7.88778L7.69578 8.65294H8.60778L8.49578 7.59694H10.4638L10.5758 8.65294H11.0398L11.2318 7.21294Z" fill="black" fill-opacity="0.7"/>
<path d="M20.3985 11.9809L21.9825 0.764937H29.5825L29.2625 3.02094C29.2199 3.33027 29.0812 3.5916 28.8465 3.80494C28.6119 4.0076 28.3399 4.10894 28.0305 4.10894H26.0785L26.7665 3.51694L26.9425 2.28494H24.2065L23.8545 4.71694H29.0225L28.6865 7.14894L26.8785 9.30894L28.3025 11.9809H25.8705L25.3905 11.0849L24.6545 11.9809H20.3985ZM16.9105 6.52494L17.2945 3.80494H16.0785L16.3025 2.28494H17.5185L17.7105 0.924937L17.3105 0.460938H20.5105L20.2545 2.28494H21.4705L21.2465 3.80494H20.0465L19.7425 5.90094L20.9905 5.62894L20.7665 7.30894L19.5025 7.58094L19.0385 10.9249C18.9852 11.2343 18.8412 11.4903 18.6065 11.6929C18.3719 11.8849 18.0999 11.9809 17.7905 11.9809H14.9265L16.3665 10.4929L16.6865 8.18894L15.4225 8.46094L15.6625 6.79694L16.9105 6.52494ZM22.9425 11.1169L24.4625 9.32494L23.4705 7.45294L22.9425 11.1169ZM23.6305 6.23694L23.5985 6.54094H25.4225L25.9505 7.54894L26.7985 6.54094L26.8465 6.23694H23.6305Z" fill="black" fill-opacity="0.7"/>
<path d="M14.2238 19.1969L13.5838 23.7409H5.64778L6.28778 19.1969H14.2238ZM2.52778 19.7889H1.37578L1.58378 18.2689H2.75178L2.92778 16.9889L2.63978 16.5249H4.89578L4.63978 18.2689H5.82378L5.61578 19.7889H4.43178L3.27978 27.9809H1.37578L2.52778 19.7889ZM10.9758 23.9969L10.6238 24.3489H13.8878L13.6798 25.8369H11.4238L13.4078 27.9809H10.8958L9.07178 25.9489L7.08778 27.9809H4.65578L6.78378 25.8369H5.00778L5.21578 24.3489H8.25578L8.60778 23.9969H10.9758ZM13.1998 17.0689H14.9118L14.7198 18.4289H13.0078L12.9438 18.9089H10.8798L10.9438 18.4289H9.69578L9.63178 18.9089H7.58378L7.64778 18.4289H6.20778L6.39978 17.0689H7.83978L7.93578 16.4769H9.98378L9.88778 17.0689H11.1358L11.2318 16.4769H13.2958L13.1998 17.0689ZM0.175781 27.4049L1.43978 20.1089H2.31978L1.07178 27.4049H0.175781ZM3.90378 26.4929L4.57578 20.1089H5.45578L4.79978 26.4929H3.90378ZM8.25578 20.9889H11.7598L11.8398 20.3969H8.33578L8.25578 20.9889ZM11.5518 22.5089L11.6318 21.9489H8.12778L8.04778 22.5089H11.5518Z" fill="black" fill-opacity="0.7"/>
<path d="M26.0145 21.8209L25.9505 22.2689L26.3025 23.2609L26.8145 22.3809L26.9905 21.1009H24.3665L23.0705 27.9489H20.9905L23.0865 16.7489L29.5985 16.5409L29.3905 18.0609L24.9105 18.2689L24.6545 19.6289H29.0865L28.6865 22.5089L27.4865 24.5089L28.7985 27.9329H26.8465L26.0625 26.2849L25.1345 27.9489H23.2145L24.9425 24.9729L24.2225 22.9249L24.3825 21.8209H26.0145ZM19.3105 16.7649L18.7985 19.5649H19.5185L19.9665 16.4609H21.9345L21.4865 19.5649H21.9825L21.7905 21.0209H18.5265L18.3665 21.9329H21.2465L20.3825 27.9809H18.2065L18.8305 23.6289H18.0465L17.2625 27.9809H14.9105L16.8625 17.3569L16.4785 16.7649H19.3105Z" fill="black" fill-opacity="0.7"/>
</svg>
