<svg width="35" height="25" viewBox="0 0 35 25" fill="none" xmlns="http://www.w3.org/2000/svg">
<path d="M11.5422 0.821289L10.9342 5.73329C10.8489 6.04262 10.6782 6.29862 10.4222 6.50129C10.1769 6.70396 9.93686 6.80529 9.7022 6.80529H4.3262L3.8622 9.87729H0.950195L2.02219 1.26929L1.5582 0.821289H11.5422ZM4.9502 2.35729L4.63019 5.26929H7.8622L8.3262 2.35729H4.9502Z" fill="black" fill-opacity="0.7"/>
<path d="M23.4953 0.821289L22.8873 5.73329C22.802 6.04262 22.6313 6.29862 22.3753 6.50129C22.13 6.70396 21.89 6.80529 21.6553 6.80529H16.2793L15.8153 9.87729H12.9033L13.9753 1.26929L13.5113 0.821289H23.4953ZM16.9033 2.35729L16.5833 5.26929H19.8153L20.2793 2.35729H16.9033Z" fill="black" fill-opacity="0.7"/>
<path d="M27.1604 9.87729L28.2324 2.35729H24.8564L25.0164 0.821289H34.8404L34.5364 2.35729H31.3044L30.2324 9.87729H27.1604Z" fill="black" fill-opacity="0.7"/>
<path d="M17.2235 16.1973L16.5835 20.7413H8.64751L9.28751 16.1973H17.2235ZM5.52751 16.7893H4.37551L4.58351 15.2693H5.75151L5.92751 13.9893L5.63951 13.5253H7.89551L7.63951 15.2693H8.82351L8.61551 16.7893H7.43151L6.27951 24.9813H4.37551L5.52751 16.7893ZM13.9755 20.9973L13.6235 21.3493H16.8875L16.6795 22.8373H14.4235L16.4075 24.9813H13.8955L12.0715 22.9493L10.0875 24.9813H7.65551L9.78351 22.8373H8.00751L8.21551 21.3493H11.2555L11.6075 20.9973H13.9755ZM16.1995 14.0693H17.9115L17.7195 15.4293H16.0075L15.9435 15.9093H13.8795L13.9435 15.4293H12.6955L12.6315 15.9093H10.5835L10.6475 15.4293H9.20751L9.39951 14.0693H10.8395L10.9355 13.4773H12.9835L12.8875 14.0693H14.1355L14.2315 13.4773H16.2955L16.1995 14.0693ZM3.17551 24.4053L4.43951 17.1093H5.31951L4.07151 24.4053H3.17551ZM6.90351 23.4933L7.57551 17.1093H8.45551L7.79951 23.4933H6.90351ZM11.2555 17.9893H14.7595L14.8395 17.3973H11.3355L11.2555 17.9893ZM14.5515 19.5093L14.6315 18.9493H11.1275L11.0475 19.5093H14.5515Z" fill="black" fill-opacity="0.7"/>
<path d="M29.0143 18.8213L28.9503 19.2693L29.3023 20.2613L29.8143 19.3813L29.9903 18.1013H27.3663L26.0703 24.9493H23.9903L26.0863 13.7493L32.5983 13.5413L32.3903 15.0613L27.9103 15.2693L27.6543 16.6293H32.0863L31.6863 19.5093L30.4863 21.5093L31.7983 24.9333H29.8463L29.0623 23.2853L28.1343 24.9493H26.2143L27.9423 21.9733L27.2223 19.9253L27.3823 18.8213H29.0143ZM22.3103 13.7653L21.7983 16.5653H22.5183L22.9663 13.4613H24.9343L24.4863 16.5653H24.9823L24.7903 18.0213H21.5263L21.3663 18.9333H24.2463L23.3823 24.9813H21.2063L21.8303 20.6293H21.0463L20.2623 24.9813H17.9103L19.8623 14.3573L19.4783 13.7653H22.3103Z" fill="black" fill-opacity="0.7"/>
</svg>
