<svg width="16" height="16" viewBox="0 0 16 16" fill="none" xmlns="http://www.w3.org/2000/svg">
<path fill-rule="evenodd" clip-rule="evenodd" d="M7.74993 2C6.12546 2 4.65771 2.67422 3.61255 3.75691C3.44289 3.93266 3.44783 4.21267 3.62358 4.38233C3.79933 4.55199 4.07934 4.54705 4.249 4.3713C5.13437 3.45414 6.37525 2.88462 7.74993 2.88462C10.437 2.88462 12.6153 5.06293 12.6153 7.75C12.6153 7.78727 12.6199 7.82346 12.6286 7.85803C12.6767 8.05024 12.8506 8.1926 13.0577 8.1926C13.302 8.1926 13.5 7.99457 13.5 7.75029V3.03234C13.5 2.78806 13.302 2.59003 13.0577 2.59003C12.8134 2.59003 12.6154 2.78806 12.6154 3.03234V4.68432C11.5969 3.07134 9.79854 2 7.74993 2ZM2.88462 7.75C2.88462 7.50572 2.68659 7.30769 2.44231 7.30769C2.19803 7.30769 2 7.50572 2 7.75V12.4679C2 12.7122 2.19803 12.9103 2.44231 12.9103C2.68659 12.9103 2.88462 12.7122 2.88462 12.4679V10.8158C3.90309 12.4287 5.70144 13.5 7.75 13.5C9.30092 13.5 10.7092 12.8854 11.7431 11.8874C11.9188 11.7177 11.9238 11.4377 11.7541 11.262C11.5845 11.0862 11.3045 11.0813 11.1287 11.2509C10.2531 12.0962 9.06264 12.6154 7.75 12.6154C5.06293 12.6154 2.88462 10.4371 2.88462 7.75Z" fill="black" fill-opacity="0.45"/>
</svg>
