<svg width="17" height="18" viewBox="0 0 17 18" fill="none" xmlns="http://www.w3.org/2000/svg">
<path fill-rule="evenodd" clip-rule="evenodd" d="M8.05953 13.6153C10.6085 13.6153 12.6749 11.5489 12.6749 8.99996C12.6749 6.45097 10.6085 4.38461 8.05953 4.38461C5.51054 4.38461 3.44418 6.45097 3.44418 8.99996C3.44418 11.5489 5.51054 13.6153 8.05953 13.6153ZM8.05953 14.9999C11.3732 14.9999 14.0595 12.3136 14.0595 8.99996C14.0595 5.68627 11.3732 3 8.05953 3C4.74584 3 2.05957 5.68627 2.05957 8.99996C2.05957 12.3136 4.74584 14.9999 8.05953 14.9999Z" fill="black"/>
<path fill-rule="evenodd" clip-rule="evenodd" d="M11.7243 12.6647C11.9946 12.3943 12.433 12.3943 12.7033 12.6647L13.6264 13.5878C13.8967 13.8581 13.8967 14.2965 13.6264 14.5668C13.356 14.8372 12.9177 14.8372 12.6473 14.5668L11.7243 13.6437C11.4539 13.3734 11.4539 12.935 11.7243 12.6647Z" fill="black"/>
</svg>
